# xmcd
#
# Track frame offsets: 
#        150
#        19520
#        33933
#        43289
#        59590
#
# Disc length: 949 seconds
#
# Revision: 0
# Processed by: cddbd v1.5.2PL0 Copyright (c) Steve Scherf et al.
# Submitted via: ExactAudioCopyFreeDBPlugin 1.0
#
DISCID=3c03b305
DTITLE=Haley Bonar - Sing With Me
DYEAR=1900
DGENRE=Folk
TTITLE0=Beautiful You
TTITLE1=Sing With Me
TTITLE2=I Wanna Be Like You [from Jungle Book]
TTITLE3=For Sister
TTITLE4=If I Had A Rainbow
EXTD=
EXTT0=
EXTT1=
EXTT2=
EXTT3=
EXTT4=
PLAYORDER=
